<svg width="185" height="79" viewBox="0 0 185 79" fill="none" xmlns="http://www.w3.org/2000/svg">
<path d="M1 27.6399H7.00399V59.5251C7.00399 63.0077 7.9877 65.8287 9.95511 67.9883C11.9225 70.148 14.4779 71.2278 17.6213 71.2278C20.8098 71.2278 23.3991 70.148 25.3892 67.9883C27.3792 65.8287 28.3742 62.9851 28.3742 59.4573C28.3742 56.0878 27.351 53.3403 25.3046 51.2147C23.2581 49.0892 20.6292 48.0264 17.4177 48.0263C15.9607 48.028 14.515 48.2804 13.1437 48.7726C11.7415 49.2701 10.362 50.039 9.00532 51.0792V44.6681C10.3507 43.9037 11.7944 43.3272 13.2963 42.9548C14.845 42.5763 16.434 42.3883 18.0283 42.395C19.6279 42.3976 21.2177 42.6436 22.7433 43.1245C24.2538 43.5865 25.6839 44.2787 26.9834 45.1767C29.4031 46.8502 31.2518 48.9194 32.5294 51.3842C33.807 53.8491 34.4459 56.5627 34.4459 59.5251C34.4459 64.5454 32.8686 68.6837 29.7139 71.9401C26.5593 75.1965 22.5736 76.8248 17.7569 76.825C14.5457 76.825 11.6059 76.0166 8.93749 74.3996C6.29961 72.8161 4.17844 70.5005 2.83174 67.7343C2.15998 66.4442 1.68548 65.0607 1.42407 63.6298C1.14142 62.1373 1.00009 59.8986 1.00009 56.9135L1 27.6399Z" fill="white" stroke="white" stroke-width="2"/>
<path d="M128.832 42.9381C130.867 42.9381 132.405 43.283 133.445 43.9727C134.485 44.6624 135.005 45.6856 135.005 47.0423C135.001 47.7858 134.839 48.5199 134.531 49.1963C134.214 49.9086 133.716 50.6266 133.038 51.3503L116.247 70.5157H135.141V76.2145H115.195C113.296 76.2145 111.837 75.83 110.82 75.0612C109.802 74.2923 109.293 73.1955 109.293 71.7709C109.306 71.0424 109.492 70.3274 109.836 69.6851C110.198 68.9728 110.831 68.1191 111.736 67.124L127.984 48.5694H110.616V42.9381H128.832Z" fill="white" stroke="white" stroke-width="2"/>
<path d="M155.421 76.2144V58.0667C155.421 53.2274 156.71 49.3943 159.288 46.5676C161.866 43.7409 165.303 42.3275 169.6 42.3275C173.897 42.3275 177.323 43.7409 179.878 46.5676C182.433 49.3943 183.711 53.2274 183.711 58.0667V76.2144H177.809V56.9813C177.809 54.358 177.045 52.221 175.519 50.5703C173.992 48.9195 172.019 48.0941 169.6 48.094C167.203 48.094 165.23 48.9194 163.681 50.5702C162.132 52.221 161.357 54.358 161.357 56.9813V76.2144H155.421Z" fill="white" stroke="white" stroke-width="2"/>
<path d="M107.18 58.7403C107.215 69.4964 98.5208 78.2459 87.7627 78.2812C84.8197 78.2938 81.9123 77.6379 79.2597 76.3631C76.6071 75.0883 74.2786 73.2279 72.4497 70.9221C74.2139 68.4982 75.416 65.7118 75.9688 62.7653C76.9093 65.5512 78.8106 67.9113 81.3323 69.4234C83.854 70.9354 86.8315 71.5007 89.7319 71.0179C92.6323 70.5352 95.2662 69.0359 97.1622 66.7886C99.0581 64.5412 100.092 61.6925 100.08 58.7522C100.067 55.8119 99.0087 52.9721 97.0935 50.7411C95.1784 48.51 92.5318 47.0333 89.6274 46.5754C86.7229 46.1175 83.7504 46.7082 81.2417 48.2417C78.733 49.7753 76.852 52.1517 75.9354 54.9454C75.5795 56.0279 75.3768 57.1549 75.3331 58.2935C75.3236 58.4747 75.3212 58.6578 75.3212 58.843C75.3212 59.04 75.3271 59.2329 75.337 59.4279V59.4338C75.244 63.2562 74.0224 66.9657 71.8258 70.0953C71.6308 70.373 71.43 70.6467 71.2195 70.9126C69.4064 73.2407 67.0871 75.1255 64.4374 76.4241C61.7876 77.7227 58.877 78.401 55.9262 78.4076C45.1682 78.4431 36.4188 69.7508 36.3833 58.9926C36.3478 48.2345 45.0421 39.4852 55.8002 39.4497C58.7456 39.4374 61.6552 40.0943 64.3096 41.3709C66.964 42.6474 69.2937 44.5102 71.123 46.8186C69.3593 49.2443 68.1548 52.0306 67.5962 54.9773C66.6583 52.19 64.7589 49.8276 62.2381 48.3131C59.7173 46.7986 56.7397 46.2308 53.8384 46.7115C50.9371 47.1921 48.3017 48.6898 46.404 50.9364C44.5063 53.1829 43.4702 56.0316 43.4813 58.9724C43.4924 61.9132 44.55 64.754 46.4646 66.9861C48.3792 69.2183 51.0258 70.6961 53.9306 71.1548C56.8354 71.6136 59.8087 71.0233 62.318 69.4898C64.8273 67.9563 66.7088 65.5797 67.6256 62.7854C67.9842 61.6948 68.1877 60.5593 68.2302 59.412C68.238 59.2388 68.2396 59.0654 68.2396 58.8902C68.2396 58.7071 68.2338 58.5258 68.2258 58.3447C68.3094 54.506 69.5315 50.7787 71.737 47.6359C71.932 47.3582 72.1329 47.0845 72.3416 46.8186C74.1554 44.4908 76.4751 42.6062 79.1251 41.3077C81.7751 40.0091 84.6858 39.3306 87.6368 39.3236C98.3948 39.2883 107.144 47.9804 107.18 58.7403Z" fill="url(#paint0_linear_511_62)"/>
<path d="M145.904 77.2213L141.219 70.1933V37.2473C142.746 37.6631 144.322 37.8734 145.905 37.8726C147.487 37.8734 149.063 37.6632 150.59 37.2478V70.1933L145.904 77.221L145.904 77.2213Z" fill="url(#paint1_linear_511_62)"/>
<path d="M145.905 35.5202C137.976 35.5202 131.008 30.1192 128.959 22.3862C128.157 19.3748 128.154 16.2063 128.949 13.1932C129.745 10.1801 131.312 7.42628 133.496 5.20325C135.212 3.4576 137.277 2.09357 139.556 1.20027C141.835 0.30696 144.276 -0.0955291 146.721 0.0190904C149.166 0.13371 151.56 0.76286 153.745 1.86544C155.93 2.96803 157.859 4.51924 159.404 6.41775C162.201 9.83525 163.637 14.1659 163.436 18.5778C163.235 22.9897 161.411 27.1718 158.314 30.3206C156.697 31.9706 154.766 33.2807 152.635 34.1736C150.504 35.0665 148.215 35.5244 145.905 35.5202ZM145.361 5.2727C141.752 5.2727 136.928 6.55607 134.447 12.6684C134.433 12.7049 134.123 13.5627 134.491 14.0998C134.694 14.3968 135.066 14.5479 135.595 14.5485C135.723 14.5481 135.85 14.5404 135.976 14.5254C137.071 14.4005 138.084 13.8192 138.829 12.8874C139.719 11.7789 141.741 9.91932 145.284 9.91932C146.14 9.92468 146.992 10.0215 147.827 10.2082C148 10.246 148.176 10.265 148.352 10.265C149.433 10.265 150.356 9.5882 150.598 8.61832C150.622 8.51676 150.641 8.41377 150.653 8.30994C150.792 7.04712 149.857 5.85119 148.524 5.58648C147.482 5.38086 146.423 5.27578 145.361 5.2727Z" fill="url(#paint2_linear_511_62)"/>
<defs>
<linearGradient id="paint0_linear_511_62" x1="81.7638" y1="78.4077" x2="73.2737" y2="37.2264" gradientUnits="userSpaceOnUse">
<stop stop-color="#DF643A"/>
<stop offset="1" stop-color="#E99841"/>
</linearGradient>
<linearGradient id="paint1_linear_511_62" x1="147.226" y1="77.2213" x2="127.454" y2="64.8097" gradientUnits="userSpaceOnUse">
<stop stop-color="#DF643A"/>
<stop offset="1" stop-color="#E99841"/>
</linearGradient>
<linearGradient id="paint2_linear_511_62" x1="150.854" y1="35.5203" x2="137.952" y2="1.37947" gradientUnits="userSpaceOnUse">
<stop stop-color="#DF643A"/>
<stop offset="1" stop-color="#E99841"/>
</linearGradient>
</defs>
</svg>
