<svg width="52" height="52" viewBox="0 0 52 52" fill="none" xmlns="http://www.w3.org/2000/svg">
<path d="M13.258 36.3909C11.955 36.5818 9.80998 36.9373 8.38303 35.3184C6.95608 33.6995 5.72209 29.7903 5.17975 26.2966C4.37944 21.1473 5.17365 16.8076 7.41412 14.0776C8.73444 12.4698 10.4671 11.5385 12.4252 11.3902C14.102 11.2612 16.6076 11.9173 19.0268 15.7767C20.5421 18.1949 21.6948 21.4073 22.1894 24.5893C22.7866 28.4304 23.3686 32.5295 21.3322 33.9991C20.1836 34.8288 19.3589 35.1162 17.4099 35.5804C15.8072 35.9612 14.5621 36.1989 13.258 36.3909Z" fill="black"/>
<path d="M10.9403 39.6947L21.9995 37.4136C22.9338 37.2206 23.6834 37.7345 24.0307 39.2742C25.1703 44.328 23.5371 50.375 18.4224 50.375C13.5789 50.375 10.3513 44.8541 9.82416 41.8864C9.58345 40.5407 9.92674 39.9029 10.9403 39.6947Z" fill="black"/>
<path d="M34.5911 25.8314C32.6421 25.3693 31.8175 25.0798 30.6688 24.2501C28.6325 22.7805 29.2144 18.6814 29.8116 14.8403C30.3062 11.6584 31.4589 8.44188 32.9743 6.02774C35.3914 2.16836 37.897 1.51227 39.5758 1.64125C41.5319 1.79055 43.2656 2.71985 44.5859 4.32758C46.8284 7.05758 47.6226 11.3973 46.8203 16.5466C46.2769 20.0403 45.047 23.9363 43.6119 25.5684C42.1768 27.2005 40.044 26.8318 38.7369 26.6409C37.4298 26.4499 36.1928 26.2113 34.5911 25.8314Z" fill="black"/>
<path d="M41.0597 29.9447L30.0006 27.6636C29.0662 27.4706 28.3167 27.9845 27.9693 29.5242C26.8308 34.578 28.464 40.625 33.5786 40.625C38.4222 40.625 41.6498 35.1041 42.1769 32.1364C42.4166 30.7907 42.0733 30.1529 41.0597 29.9447Z" fill="black"/>
</svg>
