<svg width="52" height="52" viewBox="0 0 52 52" fill="none" xmlns="http://www.w3.org/2000/svg">
<g clip-path="url(#clip0_3_26)">
<path d="M44.9679 28.6406C46.1665 24.7397 45.9586 20.4952 44.336 16.4659C42.6752 12.3423 39.6607 8.78578 36.2719 6.95196C35.1806 6.36138 33.8788 7.2535 34.0357 8.48434V8.48444C34.3848 11.223 34.4225 13.9828 32.6062 15.9131C28.74 11.203 31.8893 2.13455 31.9233 2.03867C32.3506 0.84237 31.2121 -0.320622 30.0069 0.0810573C26.219 1.34368 23.0817 3.85157 21.1728 7.1428C19.2887 10.3912 18.6369 14.3553 19.243 18.7412C17.7914 17.63 16.7463 15.9993 16.123 13.8654C15.3704 11.2895 15.533 8.92583 15.5346 8.90542V8.90532C15.6485 7.43723 13.8204 6.67774 12.8605 7.79422L12.8604 7.79432C12.7728 7.89629 10.695 10.3389 9.15034 14.3605C7.35766 19.0278 7.02271 23.9239 8.15574 28.6406H44.9679Z" fill="black"/>
<path d="M48.9531 31.6875H3.04688C1.36409 31.6875 0 33.0516 0 34.7344V48.9531C0 50.6359 1.36409 52 3.04688 52H48.9531C50.6359 52 52 50.6359 52 48.9531V34.7344C52 33.0516 50.6359 31.6875 48.9531 31.6875ZM14.4563 47.8029C14.2072 48.0612 13.875 48.191 13.5425 48.191C13.2252 48.191 12.9076 48.0728 12.6612 47.8351L8.98828 44.2917V46.9215C8.98828 47.6226 8.41984 48.191 7.71875 48.191C7.01766 48.191 6.44922 47.6226 6.44922 46.9215V36.7652C6.44922 36.0641 7.01766 35.4957 7.71875 35.4957C8.41984 35.4957 8.98828 36.0641 8.98828 36.7652V39.0239L12.323 35.9587C12.8391 35.4843 13.6422 35.5179 14.1168 36.0343C14.5913 36.5504 14.5575 37.3536 14.0412 37.8281L9.89544 41.6388L14.4241 46.0079C14.9287 46.4946 14.9431 47.2985 14.4563 47.8029ZM25.62 46.3036C25.4524 46.5037 25.2704 46.6912 25.0791 46.8616C24.1026 47.7312 22.8469 48.1911 21.448 48.1911C17.9479 48.1911 15.1004 45.3436 15.1004 41.8435C15.1004 38.3433 17.9479 35.4958 21.448 35.4958C22.7199 35.4958 23.9475 35.8709 24.9979 36.5807C25.5789 36.9732 25.7317 37.7625 25.339 38.3433C24.9466 38.9242 24.1575 39.077 23.5764 38.6845C22.9474 38.2594 22.2114 38.0349 21.448 38.0349C19.348 38.0349 17.6395 39.7434 17.6395 41.8435C17.6395 43.9436 19.348 45.6521 21.448 45.6521C22.2253 45.6521 22.879 45.421 23.3907 44.9652C23.4902 44.8765 23.5856 44.7781 23.6742 44.6724C24.1246 44.135 24.9254 44.0645 25.4626 44.5151C26 44.9656 26.0704 45.7663 25.62 46.3036ZM36.8813 48.1094C36.7337 48.165 36.5823 48.1914 36.4333 48.1914C35.9202 48.1915 35.4372 47.8782 35.2453 47.3698L34.6141 45.6972H30.2394L29.6011 47.3734C29.3515 48.0286 28.618 48.3574 27.9628 48.1079C27.3076 47.8584 26.9788 47.1249 27.2283 46.4696L31.0419 36.4564C31.0455 36.4468 31.0492 36.4374 31.053 36.428C31.2841 35.8625 31.8284 35.4965 32.4393 35.4957H32.4413C33.0517 35.4957 33.5958 35.8601 33.8281 36.4246C33.8329 36.4362 33.8376 36.4479 33.842 36.4597L37.621 46.4734C37.8684 47.1294 37.5373 47.8617 36.8813 48.1094ZM44.2883 48.1826C43.1346 48.189 42.3458 48.1918 41.8021 48.1918C40.6701 48.1918 40.6006 48.1798 40.5101 48.1643C39.9008 48.0598 39.4552 47.5314 39.4552 46.9131V36.7653C39.4552 36.0643 40.0236 35.4958 40.7247 35.4958C41.4258 35.4958 41.9943 36.0643 41.9943 36.7653V45.652C42.6528 45.651 43.4913 45.6479 44.274 45.6435H44.2812C44.9791 45.6435 45.5466 46.2073 45.5506 46.9059C45.5546 47.6071 44.9895 48.1786 44.2883 48.1826Z" fill="black"/>
<path d="M31.2063 43.1582H33.6559L32.4367 39.9275L31.2063 43.1582Z" fill="black"/>
</g>
<defs>
<clipPath id="clip0_3_26">
<rect width="52" height="52" fill="white"/>
</clipPath>
</defs>
</svg>
