<svg width="36" height="78" viewBox="0 0 36 78" fill="none" xmlns="http://www.w3.org/2000/svg">
<path d="M17.549 77.2212L12.8638 70.1933V37.2473C14.3911 37.6631 15.9671 37.8734 17.55 37.8726C19.1324 37.8733 20.7078 37.6632 22.2347 37.2478V70.1933L17.5492 77.2209L17.549 77.2212Z" fill="url(#paint0_linear_0_33)"/>
<path d="M17.5499 35.5202C9.62099 35.5202 2.6528 30.1192 0.603913 22.3862C-0.198013 19.3748 -0.201346 16.2063 0.594243 13.1932C1.38983 10.1801 2.95688 7.42628 5.14092 5.20325C6.85677 3.4576 8.92159 2.09357 11.2005 1.20027C13.4794 0.30696 15.9211 -0.0955291 18.3662 0.0190904C20.8113 0.13371 23.2046 0.76286 25.39 1.86544C27.5753 2.96803 29.5035 4.51924 31.0485 6.41775C33.846 9.83525 35.2822 14.1659 35.0811 18.5778C34.88 22.9897 33.0558 27.1718 29.959 30.3206C28.3416 31.9706 26.4106 33.2807 24.2795 34.1736C22.1485 35.0665 19.8604 35.5244 17.5499 35.5202ZM17.0062 5.2727C13.3966 5.2727 8.57257 6.55607 6.09194 12.6684C6.0782 12.7049 5.76773 13.5627 6.13571 14.0998C6.33922 14.3968 6.71099 14.5479 7.24021 14.5485C7.36754 14.5481 7.49473 14.5404 7.62117 14.5254C8.71592 14.4005 9.72918 13.8192 10.4742 12.8874C11.3641 11.7789 13.3861 9.91932 16.9288 9.91932C17.7844 9.92468 18.637 10.0215 19.4721 10.2082C19.6445 10.246 19.8205 10.265 19.997 10.265C21.0778 10.265 22.001 9.5882 22.2424 8.61832C22.2672 8.51676 22.2856 8.41377 22.2977 8.30994C22.4372 7.04712 21.5018 5.85119 20.1685 5.58648C19.1269 5.38086 18.0679 5.27578 17.0062 5.2727Z" fill="url(#paint1_linear_0_33)"/>
<defs>
<linearGradient id="paint0_linear_0_33" x1="18.8705" y1="77.2212" x2="-0.901467" y2="64.8097" gradientUnits="userSpaceOnUse">
<stop stop-color="#DF643A"/>
<stop offset="1" stop-color="#E99841"/>
</linearGradient>
<linearGradient id="paint1_linear_0_33" x1="22.4989" y1="35.5203" x2="9.59644" y2="1.37947" gradientUnits="userSpaceOnUse">
<stop stop-color="#DF643A"/>
<stop offset="1" stop-color="#E99841"/>
</linearGradient>
</defs>
</svg>
