<svg width="183" height="79" viewBox="0 0 183 79" fill="none" xmlns="http://www.w3.org/2000/svg">
<path d="M91.549 77.2213L86.8638 70.1933V37.2473C88.3911 37.6631 89.9671 37.8734 91.55 37.8726C93.1324 37.8734 94.7078 37.6632 96.2347 37.2478V70.1933L91.5492 77.221L91.549 77.2213Z" fill="url(#paint0_linear_511_28)"/>
<path d="M91.5499 35.5202C83.621 35.5202 76.6528 30.1192 74.6039 22.3862C73.802 19.3748 73.7987 16.2063 74.5942 13.1932C75.3898 10.1801 76.9569 7.42628 79.1409 5.20325C80.8568 3.4576 82.9216 2.09357 85.2005 1.20027C87.4794 0.30696 89.9211 -0.0955291 92.3662 0.0190904C94.8113 0.13371 97.2046 0.76286 99.39 1.86544C101.575 2.96803 103.503 4.51924 105.049 6.41775C107.846 9.83525 109.282 14.1659 109.081 18.5778C108.88 22.9897 107.056 27.1718 103.959 30.3206C102.342 31.9706 100.411 33.2807 98.2795 34.1736C96.1485 35.0665 93.8604 35.5244 91.5499 35.5202ZM91.0062 5.2727C87.3966 5.2727 82.5726 6.55607 80.0919 12.6684C80.0782 12.7049 79.7677 13.5627 80.1357 14.0998C80.3392 14.3968 80.711 14.5479 81.2402 14.5485C81.3675 14.5481 81.4947 14.5404 81.6212 14.5254C82.7159 14.4005 83.7292 13.8192 84.4742 12.8874C85.3641 11.7789 87.3861 9.91932 90.9288 9.91932C91.7844 9.92468 92.637 10.0215 93.4721 10.2082C93.6445 10.246 93.8205 10.265 93.997 10.265C95.0778 10.265 96.001 9.5882 96.2424 8.61832C96.2672 8.51676 96.2856 8.41377 96.2977 8.30994C96.4372 7.04712 95.5018 5.85119 94.1685 5.58648C93.1269 5.38086 92.0679 5.27578 91.0062 5.2727Z" fill="url(#paint1_linear_511_28)"/>
<defs>
<linearGradient id="paint0_linear_511_28" x1="92.8705" y1="77.2213" x2="73.0985" y2="64.8097" gradientUnits="userSpaceOnUse">
<stop stop-color="#DF643A"/>
<stop offset="1" stop-color="#E99841"/>
</linearGradient>
<linearGradient id="paint1_linear_511_28" x1="96.4989" y1="35.5203" x2="83.5964" y2="1.37947" gradientUnits="userSpaceOnUse">
<stop stop-color="#DF643A"/>
<stop offset="1" stop-color="#E99841"/>
</linearGradient>
</defs>
</svg>
